<?xml version="1.0" encoding="UTF-8"?>
<svg id="Layer_1" xmlns="http://www.w3.org/2000/svg" version="1.1" viewBox="0 0 5327.5 2815.6">
  <!-- Generator: Adobe Illustrator 29.3.1, SVG Export Plug-In . SVG Version: 2.1.0 Build 151)  -->
  <defs>
    <style>
      .st0, .st1 {
        fill: #fff;
      }

      .st1 {
        fill-rule: evenodd;
      }

      .st2 {
        fill: none;
      }
    </style>
  </defs>
  <g id="Layer_x5F_1">
    <g id="_952679456">
      <g>
        <polygon id="_952658408" class="st0" points="1345 1822.2 1024.3 1822.2 1013.8 1822.2 1013.8 1811.7 1013.8 912.4 1013.8 902 1024.3 902 1792 902 1802.5 902 1802.5 912.4 1802.5 1811.7 1802.5 1822.2 1792 1822.2 1463.2 1822.2 1463.2 1801.2 1781.5 1801.2 1781.5 922.9 1034.8 922.9 1034.8 1801.2 1345 1801.2 1345 1822.2"/>
        <polygon id="_952658384" class="st0" points="1134 1033.5 1682.3 1033.5 1682.3 1054.5 1134 1054.5 1134 1033.5"/>
        <polygon id="_952657640" class="st0" points="1134 1187.1 1682.3 1187.1 1682.3 1208.1 1134 1208.1 1134 1187.1"/>
        <polygon id="_952657544" class="st0" points="1134 1340.6 1682.3 1340.6 1682.3 1361.6 1134 1361.6 1134 1340.6"/>
        <polygon id="_952657328" class="st0" points="1134 1494.1 1682.3 1494.1 1682.3 1515.1 1134 1515.1 1134 1494.1"/>
        <g>
          <path id="_952657712" class="st0" d="M1408.2,1534.2c12.9,0,20.7,10.1,28.4,20,3.8,4.9,7.5,9.8,10.2,10.9,2.7,1.1,8.9.3,15.1-.5h0c12-1.6,24-3.2,32.7,5.4,8.7,8.7,7,20.6,5.4,32.6-.8,6.2-1.7,12.4-.5,15.2,1.1,2.6,6,6.4,10.9,10.2,9.9,7.6,20,15.4,20,28.4s-10.1,20.7-20,28.4c-4.9,3.8-9.8,7.5-10.9,10.2-1.1,2.7-.3,8.9.5,15.1h0c1.6,12,3.2,24-5.4,32.7-8.7,8.7-20.7,7.1-32.7,5.4h0c-6.2-.8-12.4-1.7-15.1-.5-2.6,1.1-6.4,6-10.2,10.9-7.6,9.9-15.4,20-28.4,20s-20.7-10.1-28.4-20c-3.8-4.9-7.5-9.8-10.2-10.9-2.7-1.1-8.9-.3-15.1.5-12,1.6-24,3.2-32.6-5.4s-7.1-20.6-5.4-32.6c.8-6.2,1.7-12.4.5-15.2-1.1-2.6-6-6.4-10.9-10.2-9.9-7.6-20-15.4-20-28.4s10.1-20.7,20-28.4c4.9-3.8,9.8-7.5,10.9-10.2,1.1-2.7.3-8.9-.5-15.1h0c-1.6-12-3.2-24,5.4-32.7,8.7-8.7,20.6-7,32.6-5.4,6.2.8,12.4,1.7,15.1.5,2.6-1.1,6.4-6,10.2-10.9,7.6-9.9,15.4-20,28.4-20h0ZM1420,1566.9c-4.5-5.8-9.1-11.8-11.8-11.8s-7.3,5.9-11.8,11.8c-5.5,7.1-10.9,14.1-18.6,17.3-8,3.4-17,2.2-26,1-6.9-.9-13.7-1.8-15.1-.5-1.4,1.4-.5,8.2.5,15h0c1.2,9,2.4,18-1,26-3.3,7.7-10.3,13.1-17.3,18.6-5.8,4.5-11.8,9.1-11.8,11.8s5.9,7.3,11.8,11.8c7.1,5.5,14.1,10.9,17.3,18.6,3.4,8,2.2,17,1,26-.9,6.9-1.8,13.7-.5,15.1,1.4,1.4,8.2.5,15.1-.5,9-1.2,18-2.4,26,1,7.7,3.3,13.1,10.3,18.6,17.3,4.5,5.8,9.1,11.8,11.8,11.8s7.3-5.9,11.8-11.8c5.5-7.1,10.9-14.1,18.6-17.3,8-3.4,17-2.2,26-1h0c6.8.9,13.7,1.8,15,.5,1.4-1.4.5-8.2-.5-15h0c-1.2-9-2.4-18,1-26,3.3-7.7,10.3-13.1,17.3-18.6,5.8-4.5,11.8-9.1,11.8-11.8s-5.9-7.3-11.8-11.8c-7.1-5.5-14.1-10.9-17.3-18.6-3.4-8-2.2-17-1-26,.9-6.9,1.8-13.7.5-15.1-1.4-1.4-8.2-.5-15,.5h0c-9,1.2-18,2.4-26-1-7.8-3.2-13.2-10.2-18.6-17.3h0Z"/>
          <polygon id="_952657808" class="st0" points="1480.8 1738.5 1480.8 1888.4 1480.8 1913.6 1462.9 1895.8 1408.4 1841.4 1353.4 1895.8 1335.6 1913.5 1335.6 1888.4 1335.6 1738.5 1356.5 1738.5 1356.5 1863.3 1401 1819.3 1408.4 1811.9 1415.8 1819.3 1459.8 1863.1 1459.8 1738.5 1480.8 1738.5"/>
        </g>
      </g>
      <g>
        <g>
          <path id="_952657736" class="st1" d="M1408.2,483.3c435.4,0,794.9,350.8,849.2,804.9-48.9-515.8-410.5-916.3-849.2-916.3s-800.3,400.5-849.2,916.3c54.3-454.1,413.8-804.9,849.2-804.9Z"/>
          <path id="_952657184" class="st1" d="M2257.4,1527.4c-54.3,454.1-413.8,804.9-849.2,804.9s-794.9-350.8-849.2-804.9c48.9,515.8,410.5,916.3,849.2,916.3s800.2-400.5,849.2-916.3h0Z"/>
        </g>
        <g>
          <path id="_952657760" class="st1" d="M2332.7,1407.8c0,435.4-350.8,794.9-804.9,849.2,515.8-48.9,916.3-410.5,916.3-849.2s-400.5-800.3-916.3-849.2c454.1,54.3,804.9,413.8,804.9,849.2h0Z"/>
          <path id="_952657160" class="st1" d="M1288.6,2257c-454.1-54.3-804.9-413.8-804.9-849.2s350.8-794.9,804.9-849.2c-515.8,48.9-916.4,410.4-916.4,849.2s400.6,800.3,916.4,849.2Z"/>
        </g>
        <g>
          <g>
            <g>
              <path id="_952656656" class="st1" d="M1785.9,736.3c-9.3,0-16.9,2.3-16.9,5.2s7.6,5.2,16.9,5.2,16.9-2.3,16.9-5.2c-.1-2.9-7.6-5.2-16.9-5.2Z"/>
              <path id="_952656584" class="st1" d="M1674,703.6c-9.3,0-16.9,2.3-16.9,5.2h0c4.5,1.7,9,3.4,13.5,5,1.1.1,2.2.1,3.4.1,9.3,0,16.9-2.3,16.9-5.2s-7.6-5.1-16.9-5.1Z"/>
              <path id="_952656440" class="st1" d="M1465.5,648.9c-9.3,0-16.9,2.3-16.9,5.2s7.6,5.2,16.9,5.2,16.9-2.3,16.9-5.2-7.6-5.2-16.9-5.2Z"/>
              <path id="_952656632" class="st1" d="M1560.7,678.5c-4.4,0-8.3.4-11.3,1,8.4,1.6,16.7,3.3,25,5.2,2-.6,3.2-1.4,3.2-2.3,0-2.1-7.6-3.9-16.9-3.9Z"/>
              <path id="_952657016" class="st1" d="M1731.1,682.2c-9.3,0-16.9,1.8-16.9,3.9s7.6,3.9,16.9,3.9,16.9-1.8,16.9-3.9-7.5-3.9-16.9-3.9Z"/>
              <path id="_952656752" class="st1" d="M1646.1,658c-9.3,0-16.9,1.8-16.9,3.9s7.6,3.9,16.9,3.9,16.9-1.8,16.9-3.9c-.1-2.1-7.6-3.9-16.9-3.9Z"/>
              <path id="_952656560" class="st1" d="M1554.6,620.4c-9.3,0-16.9,2.3-16.9,5.2s7.6,5.2,16.9,5.2,16.9-2.3,16.9-5.2-7.6-5.2-16.9-5.2Z"/>
              <path id="_952656944" class="st1" d="M1648.3,620.2c-9.3,0-16.9,2.3-16.9,5.2s7.6,5.2,16.9,5.2,16.9-2.3,16.9-5.2c0-2.9-7.6-5.2-16.9-5.2Z"/>
            </g>
            <g>
              <path id="_952656728" class="st1" d="M2017.5,817.5c-9.3,0-16.9,2.3-16.9,5.2s7.6,5.2,16.9,5.2,16.9-2.3,16.9-5.2-7.6-5.2-16.9-5.2Z"/>
              <path id="_952656416" class="st1" d="M1905.6,784.8c-9.3,0-16.9,2.3-16.9,5.2s7.6,5.2,16.9,5.2,16.9-2.3,16.9-5.2c-.1-2.9-7.6-5.2-16.9-5.2Z"/>
              <path id="_952656320" class="st1" d="M1792.3,759.7c-8.8,0-16,1.6-16.8,3.6,1.9,1.1,3.8,2.2,5.8,3.3,3,.6,6.8,1,11,1,9.3,0,16.9-1.8,16.9-3.9-.1-2.2-7.6-4-16.9-4Z"/>
              <path id="_952655672" class="st1" d="M1962.7,763.4c-9.3,0-16.9,1.8-16.9,3.9s7.6,3.9,16.9,3.9,16.9-1.8,16.9-3.9-7.5-3.9-16.9-3.9Z"/>
              <path id="_952655984" class="st1" d="M1877.7,739.2c-9.3,0-16.9,1.8-16.9,3.9s7.6,3.9,16.9,3.9,16.9-1.8,16.9-3.9c-.1-2.1-7.6-3.9-16.9-3.9Z"/>
              <path id="_952655936" class="st1" d="M1786.2,701.6c-9.3,0-16.9,2.3-16.9,5.2s7.6,5.2,16.9,5.2,16.9-2.3,16.9-5.2-7.5-5.2-16.9-5.2Z"/>
              <path id="_952655888" class="st1" d="M1879.9,701.4c-9.3,0-16.9,2.3-16.9,5.2s7.5,5.2,16.9,5.2,16.9-2.3,16.9-5.2-7.6-5.2-16.9-5.2Z"/>
              <path id="_952656248" class="st1" d="M1917.7,837.3c-9.3,0-16.9,2.3-16.9,5.2s7.6,5.2,16.9,5.2,16.9-2.3,16.9-5.2-7.6-5.2-16.9-5.2Z"/>
              <path id="_952655648" class="st1" d="M2009.1,920.8c-9.3,0-16.9,2.3-16.9,5.2s7.6,5.2,16.9,5.2,16.9-2.3,16.9-5.2-7.6-5.2-16.9-5.2Z"/>
            </g>
            <g>
              <path id="_952656128" class="st1" d="M2204.9,1062.6c-9.3,0-16.9,2.3-16.9,5.2s7.5,5.2,16.9,5.2,16.9-2.3,16.9-5.2c0-2.9-7.6-5.2-16.9-5.2Z"/>
              <path id="_952655840" class="st1" d="M2093,1029.9c-9.3,0-16.9,2.3-16.9,5.2s7.5,5.2,16.9,5.2,16.9-2.3,16.9-5.2-7.6-5.2-16.9-5.2Z"/>
              <path id="_952656056" class="st1" d="M2096.2,1129.4h-.4c1.4,3.4,2.7,6.8,4.1,10.2,7.6-.5,13.2-2.6,13.2-5.1s-7.6-5.1-16.9-5.1h0Z"/>
              <path id="_952655552" class="st1" d="M2150.1,1008.5c-9.3,0-16.9,1.8-16.9,3.9s7.6,3.9,16.9,3.9,16.9-1.8,16.9-3.9-7.5-3.9-16.9-3.9Z"/>
              <path id="_952655336" class="st1" d="M2065,984.3c-9.3,0-16.9,1.8-16.9,3.9s7.5,3.9,16.9,3.9,16.9-1.8,16.9-3.9-7.5-3.9-16.9-3.9Z"/>
              <path id="_952654928" class="st1" d="M2067.3,946.5c-9.3,0-16.9,2.3-16.9,5.2s7.6,5.2,16.9,5.2,16.9-2.3,16.9-5.2-7.6-5.2-16.9-5.2Z"/>
              <path id="_952655192" class="st1" d="M2105,1082.4c-9.3,0-16.9,2.3-16.9,5.2s7.5,5.2,16.9,5.2,16.9-2.3,16.9-5.2-7.5-5.2-16.9-5.2Z"/>
              <path id="_952655504" class="st1" d="M2196.5,1166c-9.3,0-16.9,2.3-16.9,5.2s7.6,5.2,16.9,5.2,16.9-2.3,16.9-5.2-7.6-5.2-16.9-5.2Z"/>
            </g>
            <g>
              <path id="_952655288" class="st1" d="M2255.1,1294.1c-9.3,0-16.9,2.3-16.9,5.2s7.5,5.2,16.9,5.2,16.9-2.3,16.9-5.2c-.1-2.9-7.6-5.2-16.9-5.2Z"/>
              <path id="_952655264" class="st1" d="M2143.2,1261.4c-2.7,0-5.3.2-7.6.6.6,3.1,1.2,6.3,1.8,9.5,1.8.2,3.8.3,5.8.3,9.3,0,16.9-2.3,16.9-5.2,0-2.9-7.6-5.2-16.9-5.2Z"/>
              <path id="_952655048" class="st1" d="M2149,1371.2c8.1-.4,14.3-2.5,14.3-5.1s-6.5-4.8-14.9-5.1c.2,3.3.4,6.7.6,10.2Z"/>
              <path id="_952654904" class="st1" d="M2200.3,1240c-9.3,0-16.9,1.8-16.9,3.9s7.6,3.9,16.9,3.9,16.9-1.8,16.9-3.9-7.6-3.9-16.9-3.9Z"/>
              <path id="_952655216" class="st1" d="M2126.6,1222.6c3.4-.7,5.5-1.8,5.5-2.9s-2.8-2.5-7.2-3.2c.6,2,1.2,4.1,1.7,6.1Z"/>
              <path id="_952654496" class="st1" d="M2117.5,1178c-1.3,0-2.6,0-3.9,0,1.1,3.4,2.2,6.8,3.3,10.2h.6c9.3,0,16.9-2.3,16.9-5.2-.1-2.8-7.6-5.1-16.9-5.1Z"/>
              <path id="_952654400" class="st1" d="M2155.2,1313.9c-4.2,0-8.1.5-11.1,1.3.3,2.7.6,5.3.9,8,2.8.7,6.4,1,10.2,1,9.3,0,16.9-2.3,16.9-5.2,0-2.8-7.6-5.1-16.9-5.1h0Z"/>
              <path id="_952654448" class="st1" d="M2246.7,1397.4c-9.3,0-16.9,2.3-16.9,5.2s7.6,5.2,16.9,5.2,16.9-2.3,16.9-5.2-7.6-5.2-16.9-5.2Z"/>
            </g>
            <g>
              <path id="_952654592" class="st1" d="M1030.5,736.3c9.3,0,16.9,2.3,16.9,5.2s-7.6,5.2-16.9,5.2-16.9-2.3-16.9-5.2,7.5-5.2,16.9-5.2Z"/>
              <path id="_952654784" class="st1" d="M1142.4,703.6c9.3,0,16.9,2.3,16.9,5.2h0c-4.5,1.7-9,3.4-13.5,5-1.1.1-2.2.1-3.4.1-9.3,0-16.9-2.3-16.9-5.2s7.6-5.1,16.9-5.1Z"/>
              <path id="_952654280" class="st1" d="M1350.8,648.9c9.3,0,16.9,2.3,16.9,5.2s-7.6,5.2-16.9,5.2-16.9-2.3-16.9-5.2,7.6-5.2,16.9-5.2Z"/>
              <path id="_952654736" class="st1" d="M1255.7,678.5c4.4,0,8.3.4,11.3,1-8.4,1.6-16.7,3.3-25,5.2-2-.6-3.2-1.4-3.2-2.3,0-2.1,7.5-3.9,16.9-3.9Z"/>
              <path id="_952654544" class="st1" d="M1085.2,682.2c9.3,0,16.9,1.8,16.9,3.9s-7.5,3.9-16.9,3.9-16.9-1.8-16.9-3.9c0-2.1,7.6-3.9,16.9-3.9Z"/>
              <path id="_952654184" class="st1" d="M1170.3,658c9.3,0,16.9,1.8,16.9,3.9s-7.6,3.9-16.9,3.9-16.9-1.8-16.9-3.9,7.6-3.9,16.9-3.9Z"/>
              <path id="_952654136" class="st1" d="M1261.7,620.4c9.3,0,16.9,2.3,16.9,5.2s-7.5,5.2-16.9,5.2-16.9-2.3-16.9-5.2c0-2.8,7.6-5.2,16.9-5.2Z"/>
              <path id="_952654232" class="st1" d="M1168,620.2c9.3,0,16.9,2.3,16.9,5.2s-7.6,5.2-16.9,5.2-16.9-2.3-16.9-5.2c0-2.9,7.6-5.2,16.9-5.2Z"/>
            </g>
            <g>
              <path id="_952653872" class="st1" d="M798.9,817.5c9.3,0,16.9,2.3,16.9,5.2s-7.6,5.2-16.9,5.2-16.9-2.3-16.9-5.2,7.5-5.2,16.9-5.2Z"/>
              <path id="_952653728" class="st1" d="M910.8,784.8c9.3,0,16.9,2.3,16.9,5.2s-7.5,5.2-16.9,5.2-16.9-2.3-16.9-5.2,7.5-5.2,16.9-5.2Z"/>
              <path id="_952653632" class="st1" d="M1024.1,759.7c8.8,0,16,1.6,16.8,3.6-1.9,1.1-3.8,2.2-5.8,3.3-3,.6-6.8,1-11,1-9.3,0-16.9-1.8-16.9-3.9s7.5-4,16.9-4Z"/>
              <path id="_952653824" class="st1" d="M853.6,763.4c9.3,0,16.9,1.8,16.9,3.9s-7.5,3.9-16.9,3.9-16.9-1.8-16.9-3.9,7.6-3.9,16.9-3.9Z"/>
              <path id="_952653536" class="st1" d="M938.7,739.2c9.3,0,16.9,1.8,16.9,3.9s-7.6,3.9-16.9,3.9-16.9-1.8-16.9-3.9,7.6-3.9,16.9-3.9Z"/>
              <path id="_952653416" class="st1" d="M1030.1,701.6c9.3,0,16.9,2.3,16.9,5.2s-7.5,5.2-16.9,5.2-16.9-2.3-16.9-5.2,7.6-5.2,16.9-5.2Z"/>
              <path id="_952653752" class="st1" d="M936.4,701.4c9.3,0,16.9,2.3,16.9,5.2s-7.6,5.2-16.9,5.2-16.9-2.3-16.9-5.2c.1-2.9,7.6-5.2,16.9-5.2Z"/>
              <path id="_952653464" class="st1" d="M898.7,837.3c9.3,0,16.9,2.3,16.9,5.2s-7.5,5.2-16.9,5.2-16.9-2.3-16.9-5.2,7.6-5.2,16.9-5.2Z"/>
              <path id="_952653512" class="st1" d="M807.2,920.8c9.3,0,16.9,2.3,16.9,5.2s-7.6,5.2-16.9,5.2-16.9-2.3-16.9-5.2c0-2.8,7.6-5.2,16.9-5.2Z"/>
            </g>
            <g>
              <path id="_952652600" class="st1" d="M611.5,1062.6c9.3,0,16.9,2.3,16.9,5.2s-7.6,5.2-16.9,5.2-16.9-2.3-16.9-5.2,7.5-5.2,16.9-5.2Z"/>
              <path id="_952653248" class="st1" d="M723.4,1029.9c9.3,0,16.9,2.3,16.9,5.2s-7.6,5.2-16.9,5.2-16.9-2.3-16.9-5.2,7.6-5.2,16.9-5.2Z"/>
              <path id="_952652936" class="st1" d="M720.1,1129.4h.4c-1.4,3.4-2.7,6.8-4.1,10.2-7.6-.5-13.2-2.6-13.2-5.1s7.6-5.1,16.9-5.1Z"/>
              <path id="_952652960" class="st1" d="M666.2,1008.5c9.3,0,16.9,1.8,16.9,3.9s-7.6,3.9-16.9,3.9-16.9-1.8-16.9-3.9,7.6-3.9,16.9-3.9Z"/>
              <path id="_952652768" class="st1" d="M751.3,984.3c9.3,0,16.9,1.8,16.9,3.9s-7.6,3.9-16.9,3.9-16.9-1.8-16.9-3.9,7.6-3.9,16.9-3.9Z"/>
              <path id="_952653152" class="st1" d="M749.1,946.5c9.3,0,16.9,2.3,16.9,5.2s-7.6,5.2-16.9,5.2-16.9-2.3-16.9-5.2,7.5-5.2,16.9-5.2Z"/>
              <path id="_952653176" class="st1" d="M711.3,1082.4c9.3,0,16.9,2.3,16.9,5.2s-7.6,5.2-16.9,5.2-16.9-2.3-16.9-5.2,7.6-5.2,16.9-5.2Z"/>
              <path id="_952652888" class="st1" d="M619.9,1166c9.3,0,16.9,2.3,16.9,5.2s-7.6,5.2-16.9,5.2-16.9-2.3-16.9-5.2,7.5-5.2,16.9-5.2Z"/>
            </g>
            <g>
              <path id="_952652528" class="st1" d="M561.3,1294.1c9.3,0,16.9,2.3,16.9,5.2s-7.6,5.2-16.9,5.2-16.9-2.3-16.9-5.2,7.6-5.2,16.9-5.2Z"/>
              <path id="_952653056" class="st1" d="M673.2,1261.4c2.7,0,5.3.2,7.6.6-.6,3.1-1.2,6.3-1.8,9.5-1.8.2-3.8.3-5.8.3-9.3,0-16.9-2.3-16.9-5.2s7.6-5.2,16.9-5.2Z"/>
              <path id="_952652288" class="st1" d="M667.3,1371.2c-8.1-.4-14.3-2.5-14.3-5.1s6.5-4.8,14.9-5.1c-.2,3.3-.4,6.7-.6,10.2Z"/>
              <path id="_952652144" class="st1" d="M616,1240c9.3,0,16.9,1.8,16.9,3.9s-7.5,3.9-16.9,3.9-16.9-1.8-16.9-3.9,7.6-3.9,16.9-3.9Z"/>
              <path id="_952652024" class="st1" d="M689.7,1222.6c-3.4-.7-5.5-1.8-5.5-2.9s2.8-2.5,7.2-3.2c-.6,2-1.1,4.1-1.7,6.1Z"/>
              <path id="_952652432" class="st1" d="M698.9,1178c1.3,0,2.6,0,3.9,0-1.1,3.4-2.2,6.8-3.3,10.2h-.6c-9.3,0-16.9-2.3-16.9-5.2,0-2.8,7.5-5.1,16.9-5.1Z"/>
              <path id="_952652240" class="st1" d="M661.1,1313.9c4.2,0,8.1.5,11.1,1.3-.3,2.7-.6,5.3-.9,8-2.8.7-6.4,1-10.2,1-9.3,0-16.9-2.3-16.9-5.2,0-2.8,7.6-5.1,16.9-5.1Z"/>
              <path id="_952652384" class="st1" d="M569.7,1397.4c9.3,0,16.9,2.3,16.9,5.2s-7.5,5.2-16.9,5.2-16.9-2.3-16.9-5.2,7.6-5.2,16.9-5.2Z"/>
            </g>
          </g>
          <g>
            <g>
              <path id="_952652360" class="st1" d="M1785.9,2079.3c-9.3,0-16.9-2.3-16.9-5.2s7.6-5.2,16.9-5.2,16.9,2.3,16.9,5.2c-.1,2.9-7.6,5.2-16.9,5.2Z"/>
              <path id="_952651760" class="st1" d="M1674,2111.9c-9.3,0-16.9-2.3-16.9-5.2h0c4.5-1.7,9-3.4,13.5-5,1.1-.1,2.2-.1,3.4-.1,9.3,0,16.9,2.3,16.9,5.2,0,2.8-7.6,5.1-16.9,5.1h0Z"/>
              <path id="_952652456" class="st1" d="M1465.5,2166.7c-9.3,0-16.9-2.3-16.9-5.2s7.6-5.2,16.9-5.2,16.9,2.3,16.9,5.2-7.6,5.2-16.9,5.2Z"/>
              <path id="_952652000" class="st1" d="M1560.7,2137c-4.4,0-8.3-.4-11.3-1,8.4-1.6,16.7-3.3,25-5.2,2,.6,3.2,1.4,3.2,2.3,0,2.2-7.6,3.9-16.9,3.9Z"/>
              <path id="_952651712" class="st1" d="M1731.1,2133.3c-9.3,0-16.9-1.8-16.9-3.9s7.6-3.9,16.9-3.9,16.9,1.8,16.9,3.9-7.5,3.9-16.9,3.9Z"/>
              <path id="_952651568" class="st1" d="M1646.1,2157.6c-9.3,0-16.9-1.8-16.9-3.9s7.6-3.9,16.9-3.9,16.9,1.8,16.9,3.9-7.6,3.9-16.9,3.9Z"/>
              <path id="_952651496" class="st1" d="M1554.6,2195.1c-9.3,0-16.9-2.3-16.9-5.2s7.6-5.2,16.9-5.2,16.9,2.3,16.9,5.2-7.6,5.2-16.9,5.2Z"/>
              <path id="_952651664" class="st1" d="M1648.3,2195.3c-9.3,0-16.9-2.3-16.9-5.2s7.6-5.2,16.9-5.2,16.9,2.3,16.9,5.2-7.6,5.2-16.9,5.2Z"/>
            </g>
            <g>
              <path id="_952651304" class="st1" d="M2017.5,1998.1c-9.3,0-16.9-2.3-16.9-5.2s7.6-5.2,16.9-5.2,16.9,2.3,16.9,5.2c0,2.9-7.6,5.2-16.9,5.2Z"/>
              <path id="_952651640" class="st1" d="M1905.6,2030.7c-9.3,0-16.9-2.3-16.9-5.2s7.6-5.2,16.9-5.2,16.9,2.3,16.9,5.2c-.1,2.9-7.6,5.2-16.9,5.2Z"/>
              <path id="_952651208" class="st1" d="M1792.3,2055.9c-8.8,0-16-1.6-16.8-3.6,1.9-1.1,3.8-2.2,5.8-3.3,3-.6,6.8-1,11-1,9.3,0,16.9,1.8,16.9,3.9-.1,2.2-7.6,4-16.9,4Z"/>
              <path id="_952651112" class="st1" d="M1962.7,2052.2c-9.3,0-16.9-1.8-16.9-3.9s7.6-3.9,16.9-3.9,16.9,1.8,16.9,3.9-7.5,3.9-16.9,3.9Z"/>
              <path id="_952651448" class="st1" d="M1877.7,2076.4c-9.3,0-16.9-1.8-16.9-3.9s7.6-3.9,16.9-3.9,16.9,1.8,16.9,3.9c-.1,2.1-7.6,3.9-16.9,3.9Z"/>
              <path id="_952651160" class="st1" d="M1786.2,2113.9c-9.3,0-16.9-2.3-16.9-5.2s7.6-5.2,16.9-5.2,16.9,2.3,16.9,5.2-7.5,5.2-16.9,5.2Z"/>
              <path id="_952650320" class="st1" d="M1879.9,2114.2c-9.3,0-16.9-2.3-16.9-5.2s7.5-5.2,16.9-5.2,16.9,2.3,16.9,5.2-7.6,5.2-16.9,5.2Z"/>
              <path id="_952650848" class="st1" d="M1917.7,1978.2c-9.3,0-16.9-2.3-16.9-5.2s7.6-5.2,16.9-5.2,16.9,2.3,16.9,5.2c-.1,2.9-7.6,5.2-16.9,5.2Z"/>
              <path id="_952650704" class="st1" d="M2009.1,1894.7c-9.3,0-16.9-2.3-16.9-5.2s7.6-5.2,16.9-5.2,16.9,2.3,16.9,5.2-7.6,5.2-16.9,5.2Z"/>
            </g>
            <g>
              <path id="_952650608" class="st1" d="M2204.9,1753c-9.3,0-16.9-2.3-16.9-5.2s7.5-5.2,16.9-5.2,16.9,2.3,16.9,5.2c0,2.9-7.6,5.2-16.9,5.2Z"/>
              <path id="_952650656" class="st1" d="M2093,1785.6c-9.3,0-16.9-2.3-16.9-5.2s7.5-5.2,16.9-5.2,16.9,2.3,16.9,5.2-7.6,5.2-16.9,5.2Z"/>
              <path id="_952650536" class="st1" d="M2096.2,1686.2h-.4c1.4-3.4,2.7-6.8,4.1-10.2,7.6.5,13.2,2.6,13.2,5.1s-7.6,5.1-16.9,5.1h0Z"/>
              <path id="_952650272" class="st1" d="M2150.1,1807.1c-9.3,0-16.9-1.8-16.9-3.9s7.6-3.9,16.9-3.9,16.9,1.8,16.9,3.9-7.5,3.9-16.9,3.9Z"/>
              <path id="_952650944" class="st1" d="M2065,1831.3c-9.3,0-16.9-1.8-16.9-3.9s7.5-3.9,16.9-3.9,16.9,1.8,16.9,3.9-7.5,3.9-16.9,3.9Z"/>
              <path id="_952650368" class="st1" d="M2067.3,1869.1c-9.3,0-16.9-2.3-16.9-5.2s7.6-5.2,16.9-5.2,16.9,2.3,16.9,5.2-7.6,5.2-16.9,5.2Z"/>
              <path id="_952650632" class="st1" d="M2105,1733.1c-9.3,0-16.9-2.3-16.9-5.2s7.5-5.2,16.9-5.2,16.9,2.3,16.9,5.2-7.5,5.2-16.9,5.2Z"/>
              <path id="_952650800" class="st1" d="M2196.5,1649.6c-9.3,0-16.9-2.3-16.9-5.2s7.6-5.2,16.9-5.2,16.9,2.3,16.9,5.2-7.6,5.2-16.9,5.2Z"/>
            </g>
            <g>
              <path id="_952649744" class="st1" d="M2255.1,1521.5c-9.3,0-16.9-2.3-16.9-5.2s7.5-5.2,16.9-5.2,16.9,2.3,16.9,5.2c-.1,2.9-7.6,5.2-16.9,5.2Z"/>
              <path id="_952649552" class="st1" d="M2143.2,1554.2c-2.7,0-5.3-.2-7.6-.6.6-3.1,1.2-6.3,1.8-9.5,1.8-.2,3.8-.3,5.8-.3,9.3,0,16.9,2.3,16.9,5.2,0,2.8-7.6,5.2-16.9,5.2Z"/>
              <path id="_952650200" class="st1" d="M2149,1444.4c8.1.4,14.3,2.5,14.3,5.1s-6.5,4.8-14.9,5.1c.2-3.4.4-6.8.6-10.2Z"/>
              <path id="_952650176" class="st1" d="M2200.3,1575.6c-9.3,0-16.9-1.8-16.9-3.9s7.6-3.9,16.9-3.9,16.9,1.8,16.9,3.9-7.6,3.9-16.9,3.9Z"/>
              <path id="_952649936" class="st1" d="M2126.6,1592.9c3.4.7,5.5,1.8,5.5,2.9s-2.8,2.5-7.2,3.2c.6-2,1.2-4,1.7-6.1Z"/>
              <path id="_952650056" class="st1" d="M2117.5,1637.6c-1.3,0-2.6,0-3.9-.1,1.1-3.4,2.2-6.8,3.3-10.2h.6c9.3,0,16.9,2.3,16.9,5.2s-7.6,5.1-16.9,5.1Z"/>
              <path id="_952650032" class="st1" d="M2155.2,1501.6c-4.2,0-8.1-.5-11.1-1.3.3-2.7.6-5.3.9-8,2.8-.7,6.4-1,10.2-1,9.3,0,16.9,2.3,16.9,5.2,0,2.8-7.6,5.1-16.9,5.1h0Z"/>
              <path id="_952650008" class="st1" d="M2246.7,1418.1c-9.3,0-16.9-2.3-16.9-5.2s7.6-5.2,16.9-5.2,16.9,2.3,16.9,5.2c0,2.9-7.6,5.2-16.9,5.2Z"/>
            </g>
            <g>
              <path id="_952649504" class="st1" d="M1030.5,2079.3c9.3,0,16.9-2.3,16.9-5.2s-7.6-5.2-16.9-5.2-16.9,2.3-16.9,5.2,7.5,5.2,16.9,5.2Z"/>
              <path id="_952649336" class="st1" d="M1142.4,2111.9c9.3,0,16.9-2.3,16.9-5.2h0c-4.5-1.7-9-3.4-13.5-5-1.1-.1-2.2-.1-3.4-.1-9.3,0-16.9,2.3-16.9,5.2s7.6,5.1,16.9,5.1Z"/>
              <path id="_952649192" class="st1" d="M1350.8,2166.7c9.3,0,16.9-2.3,16.9-5.2s-7.6-5.2-16.9-5.2-16.9,2.3-16.9,5.2,7.6,5.2,16.9,5.2Z"/>
              <path id="_952649144" class="st1" d="M1255.7,2137c4.4,0,8.3-.4,11.3-1-8.4-1.6-16.7-3.3-25-5.2-2,.6-3.2,1.4-3.2,2.3,0,2.2,7.5,3.9,16.9,3.9Z"/>
              <path id="_952649288" class="st1" d="M1085.2,2133.3c9.3,0,16.9-1.8,16.9-3.9s-7.5-3.9-16.9-3.9-16.9,1.8-16.9,3.9c0,2.2,7.6,3.9,16.9,3.9Z"/>
              <path id="_952649072" class="st1" d="M1170.3,2157.6c9.3,0,16.9-1.8,16.9-3.9s-7.6-3.9-16.9-3.9-16.9,1.8-16.9,3.9,7.6,3.9,16.9,3.9Z"/>
              <path id="_952649000" class="st1" d="M1261.7,2195.1c9.3,0,16.9-2.3,16.9-5.2s-7.5-5.2-16.9-5.2-16.9,2.3-16.9,5.2c0,2.9,7.6,5.2,16.9,5.2Z"/>
              <path id="_952648784" class="st1" d="M1168,2195.3c9.3,0,16.9-2.3,16.9-5.2s-7.6-5.2-16.9-5.2-16.9,2.3-16.9,5.2,7.6,5.2,16.9,5.2Z"/>
            </g>
            <g>
              <path id="_952649096" class="st1" d="M798.9,1998.1c9.3,0,16.9-2.3,16.9-5.2s-7.6-5.2-16.9-5.2-16.9,2.3-16.9,5.2,7.5,5.2,16.9,5.2Z"/>
              <path id="_952648688" class="st1" d="M910.8,2030.7c9.3,0,16.9-2.3,16.9-5.2s-7.5-5.2-16.9-5.2-16.9,2.3-16.9,5.2,7.5,5.2,16.9,5.2Z"/>
              <path id="_952649024" class="st1" d="M1024.1,2055.9c8.8,0,16-1.6,16.8-3.6-1.9-1.1-3.8-2.2-5.8-3.3-3-.6-6.8-1-11-1-9.3,0-16.9,1.8-16.9,3.9s7.5,4,16.9,4Z"/>
              <path id="_952648232" class="st1" d="M853.6,2052.2c9.3,0,16.9-1.8,16.9-3.9s-7.5-3.9-16.9-3.9-16.9,1.8-16.9,3.9,7.6,3.9,16.9,3.9Z"/>
              <path id="_952648520" class="st1" d="M938.7,2076.4c9.3,0,16.9-1.8,16.9-3.9s-7.6-3.9-16.9-3.9-16.9,1.8-16.9,3.9,7.6,3.9,16.9,3.9Z"/>
              <path id="_952648112" class="st1" d="M1030.1,2113.9c9.3,0,16.9-2.3,16.9-5.2s-7.5-5.2-16.9-5.2-16.9,2.3-16.9,5.2,7.6,5.2,16.9,5.2Z"/>
              <path id="_952647944" class="st1" d="M936.4,2114.2c9.3,0,16.9-2.3,16.9-5.2s-7.6-5.2-16.9-5.2-16.9,2.3-16.9,5.2,7.6,5.2,16.9,5.2Z"/>
              <path id="_952648448" class="st1" d="M898.7,1978.2c9.3,0,16.9-2.3,16.9-5.2s-7.5-5.2-16.9-5.2-16.9,2.3-16.9,5.2,7.6,5.2,16.9,5.2Z"/>
              <path id="_952648040" class="st1" d="M807.2,1894.7c9.3,0,16.9-2.3,16.9-5.2s-7.6-5.2-16.9-5.2-16.9,2.3-16.9,5.2c0,2.9,7.6,5.2,16.9,5.2Z"/>
            </g>
            <g>
              <path id="_952648496" class="st1" d="M611.5,1753c9.3,0,16.9-2.3,16.9-5.2s-7.6-5.2-16.9-5.2-16.9,2.3-16.9,5.2,7.5,5.2,16.9,5.2Z"/>
              <path id="_952648208" class="st1" d="M723.4,1785.6c9.3,0,16.9-2.3,16.9-5.2s-7.6-5.2-16.9-5.2-16.9,2.3-16.9,5.2,7.6,5.2,16.9,5.2Z"/>
              <path id="_952648064" class="st1" d="M720.1,1686.2h.4c-1.4-3.4-2.7-6.8-4.1-10.2-7.6.5-13.2,2.6-13.2,5.1s7.6,5.1,16.9,5.1Z"/>
              <path id="_952648304" class="st1" d="M666.2,1807.1c9.3,0,16.9-1.8,16.9-3.9s-7.6-3.9-16.9-3.9-16.9,1.8-16.9,3.9,7.6,3.9,16.9,3.9Z"/>
              <path id="_952648568" class="st1" d="M751.3,1831.3c9.3,0,16.9-1.8,16.9-3.9s-7.6-3.9-16.9-3.9-16.9,1.8-16.9,3.9,7.6,3.9,16.9,3.9Z"/>
              <path id="_952680176" class="st1" d="M749.1,1869.1c9.3,0,16.9-2.3,16.9-5.2s-7.6-5.2-16.9-5.2-16.9,2.3-16.9,5.2,7.5,5.2,16.9,5.2Z"/>
              <path id="_952680392" class="st1" d="M711.3,1733.1c9.3,0,16.9-2.3,16.9-5.2s-7.6-5.2-16.9-5.2-16.9,2.3-16.9,5.2,7.6,5.2,16.9,5.2Z"/>
              <path id="_952680272" class="st1" d="M619.9,1649.6c9.3,0,16.9-2.3,16.9-5.2s-7.6-5.2-16.9-5.2-16.9,2.3-16.9,5.2,7.5,5.2,16.9,5.2Z"/>
            </g>
            <g>
              <path id="_952680224" class="st1" d="M561.3,1521.5c9.3,0,16.9-2.3,16.9-5.2s-7.6-5.2-16.9-5.2-16.9,2.3-16.9,5.2,7.6,5.2,16.9,5.2Z"/>
              <path id="_952679744" class="st1" d="M673.2,1554.2c2.7,0,5.3-.2,7.6-.6-.6-3.1-1.2-6.3-1.8-9.5-1.8-.2-3.8-.3-5.8-.3-9.3,0-16.9,2.3-16.9,5.2s7.6,5.2,16.9,5.2Z"/>
              <path id="_952680080" class="st1" d="M667.3,1444.4c-8.1.4-14.3,2.5-14.3,5.1s6.5,4.8,14.9,5.1c-.2-3.4-.4-6.8-.6-10.2Z"/>
              <path id="_952679552" class="st1" d="M616,1575.6c9.3,0,16.9-1.8,16.9-3.9s-7.5-3.9-16.9-3.9-16.9,1.8-16.9,3.9,7.6,3.9,16.9,3.9Z"/>
              <path id="_952679672" class="st1" d="M689.7,1592.9c-3.4.7-5.5,1.8-5.5,2.9s2.8,2.5,7.2,3.2c-.6-2-1.1-4-1.7-6.1Z"/>
              <path id="_952680032" class="st1" d="M698.9,1637.6c1.3,0,2.6,0,3.9-.1-1.1-3.4-2.2-6.8-3.3-10.2h-.6c-9.3,0-16.9,2.3-16.9,5.2s7.5,5.1,16.9,5.1Z"/>
              <path id="_952679984" class="st1" d="M661.1,1501.6c4.2,0,8.1-.5,11.1-1.3-.3-2.7-.6-5.3-.9-8-2.8-.7-6.4-1-10.2-1-9.3,0-16.9,2.3-16.9,5.2,0,2.8,7.6,5.1,16.9,5.1Z"/>
              <path id="_952679648" class="st1" d="M569.7,1418.1c9.3,0,16.9-2.3,16.9-5.2s-7.5-5.2-16.9-5.2-16.9,2.3-16.9,5.2,7.6,5.2,16.9,5.2Z"/>
            </g>
          </g>
        </g>
      </g>
    </g>
    <g id="_952679192">
      <g>
        <polygon id="_952679576" class="st0" points="3856.2 1822.2 3535.6 1822.2 3525.1 1822.2 3525.1 1811.7 3525.1 912.4 3525.1 902 3535.6 902 4303.2 902 4313.7 902 4313.7 912.4 4313.7 1811.7 4313.7 1822.2 4303.2 1822.2 3974.5 1822.2 3974.5 1801.2 4292.7 1801.2 4292.7 922.9 3546.1 922.9 3546.1 1801.2 3856.2 1801.2 3856.2 1822.2"/>
        <polygon id="_952679120" class="st0" points="3645.2 1033.5 4193.5 1033.5 4193.5 1054.5 3645.2 1054.5 3645.2 1033.5"/>
        <polygon id="_952679048" class="st0" points="3645.2 1187.1 4193.5 1187.1 4193.5 1208.1 3645.2 1208.1 3645.2 1187.1"/>
        <polygon id="_952679024" class="st0" points="3645.2 1340.6 4193.5 1340.6 4193.5 1361.6 3645.2 1361.6 3645.2 1340.6"/>
        <polygon id="_952678712" class="st0" points="3645.2 1494.1 4193.5 1494.1 4193.5 1515.1 3645.2 1515.1 3645.2 1494.1"/>
        <g>
          <path id="_952679288" class="st0" d="M3919.4,1534.2c12.9,0,20.7,10.1,28.4,20,3.8,4.9,7.5,9.8,10.2,10.9,2.7,1.1,8.9.3,15.1-.5h0c12-1.6,24-3.2,32.7,5.4,8.7,8.7,7,20.6,5.4,32.6-.8,6.2-1.7,12.4-.5,15.2,1.1,2.6,6,6.4,10.9,10.2,9.9,7.6,20,15.4,20,28.4s-10.1,20.7-20,28.4c-4.9,3.8-9.8,7.5-10.9,10.2-1.1,2.7-.3,8.9.5,15.1h0c1.6,12,3.2,24-5.4,32.7-8.7,8.7-20.7,7.1-32.7,5.4h0c-6.2-.8-12.4-1.7-15.1-.5-2.6,1.1-6.4,6-10.2,10.9-7.6,9.9-15.4,20-28.4,20s-20.7-10.1-28.4-20c-3.8-4.9-7.5-9.8-10.2-10.9-2.7-1.1-8.9-.3-15.1.5-12,1.6-24,3.2-32.6-5.4-8.7-8.7-7.1-20.6-5.4-32.6.8-6.2,1.7-12.4.5-15.2-1.1-2.6-6-6.4-10.9-10.2-9.9-7.6-20-15.4-20-28.4s10.1-20.7,20-28.4c4.9-3.8,9.8-7.5,10.9-10.2,1.1-2.7.3-8.9-.5-15.1h0c-1.6-12-3.2-24,5.4-32.7,8.7-8.7,20.6-7,32.6-5.4,6.2.8,12.4,1.7,15.1.5,2.6-1.1,6.4-6,10.2-10.9,7.7-9.9,15.4-20,28.4-20h0ZM3931.2,1566.9c-4.5-5.8-9.1-11.8-11.8-11.8s-7.3,5.9-11.8,11.8c-5.5,7.1-10.9,14.1-18.6,17.3-8,3.4-17,2.2-26,1-6.9-.9-13.7-1.8-15.1-.5-1.4,1.4-.5,8.2.5,15h0c1.2,9,2.4,18-1,26-3.3,7.7-10.3,13.1-17.3,18.6-5.8,4.5-11.8,9.1-11.8,11.8s5.9,7.3,11.8,11.8c7.1,5.5,14.1,10.9,17.3,18.6,3.4,8,2.2,17,1,26-.9,6.9-1.8,13.7-.5,15.1,1.4,1.4,8.2.5,15.1-.5,9-1.2,18-2.4,26,1,7.7,3.3,13.1,10.3,18.6,17.3,4.5,5.8,9.1,11.8,11.8,11.8s7.3-5.9,11.8-11.8c5.5-7.1,10.9-14.1,18.6-17.3,8-3.4,17-2.2,26-1h0c6.8.9,13.7,1.8,15,.5s.5-8.2-.5-15h0c-1.2-9-2.4-18,1-26,3.3-7.7,10.3-13.1,17.3-18.6,5.8-4.5,11.8-9.1,11.8-11.8s-5.9-7.3-11.8-11.8c-7.1-5.5-14.1-10.9-17.3-18.6-3.4-8-2.2-17-1-26,.9-6.9,1.8-13.7.5-15.1-1.4-1.4-8.2-.5-15,.5h0c-9,1.2-18,2.4-26-1-7.8-3.2-13.2-10.2-18.6-17.3h0Z"/>
          <polygon id="_952678640" class="st0" points="3992 1738.5 3992 1888.4 3992 1913.6 3974.1 1895.8 3919.6 1841.4 3864.6 1895.8 3846.8 1913.5 3846.8 1888.4 3846.8 1738.5 3867.8 1738.5 3867.8 1863.3 3912.2 1819.3 3919.6 1811.9 3927 1819.3 3971 1863.1 3971 1738.5 3992 1738.5"/>
        </g>
      </g>
      <g>
        <path id="_952678688" class="st1" d="M3919.4,371.8c572.1,0,1035.9,463.8,1035.9,1035.9s-463.8,922.9-1035.9,922.9-1035.9-413.2-1035.9-922.9c-.1-572.1,463.8-1035.9,1035.9-1035.9ZM4955.3,1407.8c0,572.1-463.8,1035.9-1035.9,1035.9s-1035.9-463.8-1035.9-1035.9,463.8-922.9,1035.9-922.9,1035.9,413.2,1035.9,922.9Z"/>
        <path id="_952679360" class="st1" d="M4843.9,1407.8c0,510.6-413.9,924.5-924.5,924.5s-823.7-413.9-823.7-924.5,368.8-924.5,823.7-924.5c510.6,0,924.5,413.9,924.5,924.5ZM3919.4,2332.3c-510.6,0-924.5-413.9-924.5-924.5s413.9-924.5,924.5-924.5,823.7,413.9,823.7,924.5c-.1,510.6-368.8,924.5-823.7,924.5Z"/>
      </g>
    </g>
  </g>
  <rect class="st2" width="5327.5" height="2815.6"/>
</svg>