<?xml version="1.0" encoding="UTF-8"?>
<svg id="Raggruppa_8226" data-name="Raggruppa 8226" xmlns="http://www.w3.org/2000/svg" viewBox="0 0 118.53 127.9">
  <defs>
    <style>
      .cls-1 {
        fill: #fff;
      }
    </style>
  </defs>
  <path class="cls-1" d="M117.69,99.1c-4.1-3.9-7.7-8.3-11-12.9l-1.6,1.1,1.6-1.1c-5.4-7.8-10.7-18.3-10.9-29v-.6c.1-10.9,5-22.3,21.5-32.9.8-.5,1.2-1.3,1.2-2.2,0-.4-.1-.7-.2-1.1l-6.5-14.8c-.3-.8-1-1.3-1.8-1.5-.2-.1-.4-.1-.7-.1-.6,0-1.2.2-1.6.6-1.5,1.1-3.1,2-4.8,2.8-3.5,1.8-7.4,2.7-11.3,2.8h-.2c-5.2-.1-10.6-1.9-15.6-9-.5-.7-1.3-1.1-2.1-1.1h-.3c-.8.1-1.5.5-2,1.1l-.2.2c-.6.6-3.2,2.6-10.5,2.7-4.8-.1-7.6-1-9-1.8-.5-.2-1-.6-1.4-.9l-.2-.2s0-.1-.1-.1c-.5-.6-1.2-1-2-1.1h-.1c-.9,0-1.7.4-2.2,1.1-5,7.1-10.4,8.9-15.7,9h0c-3.9-.1-7.8-1.1-11.3-2.8-1.2-.6-2.4-1.2-3.6-2-.4-.3-.7-.5-1-.6-.1-.1-.2-.1-.2-.2l-.1-.1s-.1,0-.1-.1c-.4-.3-1-.5-1.5-.5-.2,0-.5,0-.7.1-.8.2-1.5.8-1.8,1.5l-6.5,14.8c-.1.3-.2.7-.2,1.1,0,.9.5,1.7,1.2,2.2,8.3,5.3,13.6,10.8,16.9,16.4l2.6-3.1c-3.6-5.5-8.9-11-16.6-16l5.5-12.6c1.4.9,2.8,1.7,4.3,2.4,4.1,2,8.5,3.1,13,3.2h0c6,0,12.6-2.3,18-9.4.6.5,1.2.9,1.8,1.2,2.1,1.1,5.5,2.1,10.8,2.2,7.4-.1,11.1-2,12.7-3.4,5.4,7.1,12,9.5,18,9.5h1.2c4.1-.3,8.1-1.4,11.8-3.2,1.4-.7,2.7-1.4,4-2.2l.3-.2,5.5,12.6c-16.6,10.9-22.4,23.6-22.4,35.6v.1c0,12.2,5.8,23.4,11.6,31.7,2.4,3.5,5.1,6.8,7.9,9.9,1.1,1.2,2,2.1,2.6,2.7l.2.2-9.2,11.8c-1.6-1-3.3-1.9-5.1-2.7-4.5-2.1-9.4-3.2-14.4-3.3h-.1c-8.2,0-17.5,3.8-24.5,15.9-7-12.1-16.3-15.9-24.4-15.9h-.2c-5,.1-9.9,1.2-14.4,3.3-1.5.7-3,1.4-4.4,2.3-.3.2-.5.3-.7.4l-9.3-11.8c1.8-1.8,3.5-3.6,5.1-5.5-1.4-.1-2.9-.4-4.4-.9-.3.3-.5.6-.8.9-1,1.1-1.9,2-2.5,2.6-.3.3-.5.5-.7.7l-.2.2h0c-1,.9-1.2,2.5-.3,3.6l10.6,13.5c.5.6,1.3,1,2.1,1,.5,0,1.1-.2,1.5-.5l.4-.2h0c1.6-1,3.3-2,5.1-2.7,4-1.9,8.4-2.9,12.8-3h0c7.5.1,15.5,3.1,22.2,15.7h0c.5.9,1.4,1.4,2.3,1.4h.1c1,0,1.9-.5,2.4-1.4,6.8-12.7,14.8-15.6,22.2-15.7h.3c4.3.1,8.6,1.2,12.5,3,1.4.6,2.7,1.3,4,2.1.5.3.8.5,1.1.7.1.1.2.1.2.2l.1.1c.1.1.2.1.2.1h.1c1.1.6,2.5.3,3.3-.7l10.6-13.5c1.4-1.1,1.3-2.7.2-3.7h0ZM12.29,7.9h0ZM49.49.6q-.1,0,0,0h0c-.1,0,0,0,0,0h0Z"/>
  <g>
    <path id="Tracciato_172" data-name="Tracciato 172" class="cls-1" d="M64.79,52.5c-.2,1.5-4.5,4.6-4.1,8.3.2,2.3,2.2,3.9,4.5,3.7,2-.2,3.6-1.8,3.7-3.7.4-3.7-4-6.8-4.1-8.3"/>
    <path id="Tracciato_173" data-name="Tracciato 173" class="cls-1" d="M6.59,84.2c3.2,2.6,7.2,2,9.9-1.2l24-28.6h-17.7l-16.8,19.9c-2.6,3.2-2.6,7.3.6,9.9M39.29,25c-.5-.6-1.4-.7-2-.2s-.7,1.4-.2,2l.4.4,3.7,3.1L4.59,73.8c-3,3.4-2.8,8.5.6,11.6,3.4,3,8.5,2.8,11.6-.6.1-.2.3-.3.4-.5l36.6-43.7,2.9,2.5c.5.6,1.4.7,2,.2s.7-1.4.2-2c-.1-.1-.3-.3-.4-.4l-19.2-15.9ZM3.89,87.4c-4.6-3.8-5.2-10.7-1.4-15.3h0L37.39,30.5l-1.6-1.4c-1.7-1.5-1.9-4.1-.4-5.8,1.4-1.6,3.9-1.9,5.6-.5l19.2,16.1c1.7,1.5,1.9,4.1.4,5.8-1.4,1.6-3.9,1.9-5.6.5l-.8-.7-34.9,41.6c-3.9,4.6-10.8,5.2-15.4,1.3h0"/>
    <path id="Tracciato_174" data-name="Tracciato 174" class="cls-1" d="M68.49,64.6c-.2,2.2-6.4,6.6-5.8,11.8.3,3.2,3.1,5.6,6.3,5.3,2.8-.2,5.1-2.5,5.3-5.3.6-5.3-5.6-9.7-5.8-11.8"/>
  </g>
</svg>